#N canvas 299 152 450 300 12;
#X obj 29 10 inlet~;
#X obj 32 216 outlet~;
#X obj 274 215 outlet~;
#X obj 274 177 delread4~ \$0-wow;
#X obj 274 131 sig~ 10;
#X obj 114 75 delwrite~ \$0-wow 20;
#X connect 0 0 1 0;
#X connect 0 0 5 0;
#X connect 3 0 2 0;
#X connect 4 0 3 0;
