#N canvas 459 347 459 426 12;
#X obj 40 12 inlet~;
#X obj 109 13 inlet;
#X obj 42 328 *~;
#X obj 141 130 swap 1;
#X obj 141 154 -, f 6;
#X obj 109 61 t a a;
#X obj 109 37 clip 0 1;
#X obj 123 327 *~;
#X obj 60 294 line~;
#X obj 141 291 line~;
#X obj 60 265 pack 0 \$1;
#X text 277 42 Arg1: smoothing in ms;
#X obj 141 265 pack 0 \$1;
#X obj 42 352 outlet~;
#X obj 123 351 outlet~;
#X obj 141 233 cos;
#X obj 141 185 * 0.5;
#X obj 141 209 * 3.14159;
#X obj 60 232 cos;
#X obj 60 184 * 0.5;
#X obj 60 208 * 3.14159;
#X connect 0 0 2 0;
#X connect 0 0 7 0;
#X connect 1 0 6 0;
#X connect 2 0 13 0;
#X connect 3 0 4 0;
#X connect 3 1 4 1;
#X connect 4 0 16 0;
#X connect 5 0 19 0;
#X connect 5 1 3 0;
#X connect 6 0 5 0;
#X connect 7 0 14 0;
#X connect 8 0 2 1;
#X connect 9 0 7 1;
#X connect 10 0 8 0;
#X connect 12 0 9 0;
#X connect 15 0 12 0;
#X connect 16 0 17 0;
#X connect 17 0 15 0;
#X connect 18 0 10 0;
#X connect 19 0 20 0;
#X connect 20 0 18 0;
