#N canvas 481 56 804 745 12;
#X obj 15 15 inlet;
#X obj 224 275 i;
#X obj 262 276 + 1;
#X obj 262 300 moses;
#X text 57 13 trigger root note;
#X obj 156 720 outlet;
#X obj 256 544 +;
#X obj 274 519 r \$0-root-midi;
#X obj 118 144 s \$0-root-midi;
#X obj 525 22 inlet;
#X text 568 21 messages;
#N canvas 121 146 772 545 curve 1;
#X obj 513 36 inlet;
#X obj 28 387 outlet;
#X obj 28 39 inlet;
#X text 68 37 count;
#X obj 182 36 inlet;
#X obj 46 97 r \$0-length;
#X obj 46 121 - 1;
#X obj 28 148 /;
#X text 44 75 normalize length;
#X text 223 39 min;
#X obj 259 36 inlet;
#X text 300 39 max;
#X text 560 35 -1 to 1;
#X obj 513 60 moses 0;
#X obj 513 84 abs;
#X obj 513 108 swap 1;
#X obj 513 132 -;
#X obj 513 156 / 2;
#X obj 513 180 + 0.5;
#X obj 578 93 * 3;
#X obj 578 117 + 1;
#X obj 513 222 f;
#X obj 28 172 pow 1, f 25;
#X obj 28 260 -;
#X obj 28 316 * 300, f 28;
#X obj 28 342 + 5;
#X obj 28 284 abs;
#X obj 28 236 swap 0;
#X obj 338 39 inlet;
#X text 345 14 direction;
#X obj 338 63 clip 0 1;
#X obj 338 87 int;
#X text 380 37 0 fast to slow;
#X text 395 87 1 slow to fast;
#X connect 0 0 13 0;
#X connect 2 0 7 0;
#X connect 4 0 25 1;
#X connect 5 0 6 0;
#X connect 6 0 7 1;
#X connect 7 0 22 0;
#X connect 10 0 24 1;
#X connect 13 0 14 0;
#X connect 13 1 19 0;
#X connect 14 0 15 0;
#X connect 15 0 16 0;
#X connect 15 1 16 1;
#X connect 16 0 17 0;
#X connect 17 0 18 0;
#X connect 18 0 21 0;
#X connect 19 0 20 0;
#X connect 20 0 21 0;
#X connect 21 0 22 1;
#X connect 22 0 27 0;
#X connect 23 0 26 0;
#X connect 24 0 25 0;
#X connect 25 0 1 0;
#X connect 26 0 24 0;
#X connect 27 0 23 0;
#X connect 27 1 23 1;
#X connect 28 0 30 0;
#X connect 30 0 31 0;
#X connect 31 0 27 1;
#X restore 448 517 pd curve;
#X f 21;
#X obj 294 239 r \$0-length;
#X obj 262 337 i;
#X obj 296 324 t b;
#X obj 224 56 r \$0-fb;
#X obj 224 243 del;
#X obj 242 213 r \$0-delAmt;
#X obj 224 144 t b b;
#X msg 256 175 stop;
#X obj 256 485 tabread \$0-arr;
#X obj 488 482 r \$0-delMin;
#X obj 530 459 r \$0-delMax;
#X obj 448 548 s \$0-delAmt;
#X obj 123 670 pack 0 0;
#X obj 256 568 t a b;
#X obj 288 592 s \$0-fb;
#X obj 224 106 spigot 0;
#X obj 96 207 s \$0-reset;
#X obj 348 169 r \$0-reset;
#X obj 348 193 i 0;
#X obj 65 266 s \$0-loop;
#X obj 277 78 r \$0-loop;
#X obj 296 348 i 0;
#X obj 296 372 s \$0-loop;
#X obj 67 237 i 1;
#N canvas 208 233 905 498 mess 0;
#X obj 61 6 inlet;
#X obj 217 221 array set \$0-arr;
#X msg 266 253 const 0;
#X obj 240 142 list length;
#X obj 217 103 t a a b;
#X obj 239 196 s \$0-length;
#X obj 266 284 array define \$0-arr 50;
#X obj 121 91 clip -1 1;
#X obj 9 153 s \$0-delMin;
#X obj 51 130 s \$0-delMax;
#X obj 282 94 s \$0-dir;
#X obj 15 61 route delMin delMax delCurve set dir, f 57;
#X obj 400 154 s \$0-delDir;
#X obj 400 130 route delDir velMin velMax velCurve velDir;
#X obj 581 210 clip -1 1;
#X obj 469 339 s \$0-velMin;
#X obj 586 334 s \$0-velMax;
#X obj 580 236 s \$0-velc=Curve;
#X obj 120 117 s \$0-delCurve;
#X obj 624 165 s \$0-velDir;
#X obj 467 309 clip 1 127;
#X obj 588 293 clip 1 127;
#X obj 240 166 + 1;
#X text 273 165 add for root;
#X connect 0 0 11 0;
#X connect 2 0 6 0;
#X connect 3 0 22 0;
#X connect 4 0 1 0;
#X connect 4 1 3 0;
#X connect 4 2 2 0;
#X connect 7 0 18 0;
#X connect 11 0 8 0;
#X connect 11 1 9 0;
#X connect 11 2 7 0;
#X connect 11 3 4 0;
#X connect 11 4 10 0;
#X connect 11 5 13 0;
#X connect 13 0 12 0;
#X connect 13 1 20 0;
#X connect 13 2 21 0;
#X connect 13 3 14 0;
#X connect 13 4 19 0;
#X connect 14 0 17 0;
#X connect 20 0 15 0;
#X connect 21 0 16 0;
#X connect 22 0 5 0;
#X restore 525 51 pd mess;
#N canvas 237 262 450 404 dir 0;
#X obj 65 74 r \$0-length;
#X obj 65 98 - 1;
#X obj 47 125 /;
#X text 63 52 normalize length;
#X obj 47 149 swap 1;
#X obj 47 173 -;
#X obj 47 197 abs;
#X obj 119 119 r \$0-dir;
#X obj 47 26 inlet;
#X obj 47 221 *, f 16;
#X obj 47 245 + 0.4999;
#X obj 47 269 int;
#X obj 47 293 outlet;
#X connect 0 0 1 0;
#X connect 1 0 2 1;
#X connect 1 0 9 1;
#X connect 2 0 4 0;
#X connect 4 0 5 0;
#X connect 4 1 5 1;
#X connect 5 0 6 0;
#X connect 6 0 9 0;
#X connect 7 0 4 1;
#X connect 8 0 2 0;
#X connect 9 0 10 0;
#X connect 10 0 11 0;
#X connect 11 0 12 0;
#X restore 224 396 pd dir;
#X obj 592 452 r \$0-delDir;
#X obj 597 484 r \$0-delCurve;
#X obj 422 379 t a a;
#N canvas 121 146 772 545 curve 0;
#X obj 513 36 inlet;
#X obj 28 387 outlet;
#X obj 28 39 inlet;
#X text 68 37 count;
#X obj 182 36 inlet;
#X obj 46 97 r \$0-length;
#X obj 46 121 - 1;
#X obj 28 148 /;
#X text 44 75 normalize length;
#X text 223 39 min;
#X obj 259 36 inlet;
#X text 300 39 max;
#X text 560 35 -1 to 1;
#X obj 513 60 moses 0;
#X obj 513 84 abs;
#X obj 513 108 swap 1;
#X obj 513 132 -;
#X obj 513 156 / 2;
#X obj 513 180 + 0.5;
#X obj 578 93 * 3;
#X obj 578 117 + 1;
#X obj 513 222 f;
#X obj 28 172 pow 1, f 25;
#X obj 28 260 -;
#X obj 28 284 abs;
#X obj 28 236 swap 0;
#X obj 338 39 inlet;
#X text 345 14 direction;
#X obj 338 63 clip 0 1;
#X obj 338 87 int;
#X text 380 37 0 fast to slow;
#X text 395 87 1 slow to fast;
#X obj 28 316 * 127, f 28;
#X obj 28 342 + 20;
#X connect 0 0 13 0;
#X connect 2 0 7 0;
#X connect 4 0 33 1;
#X connect 5 0 6 0;
#X connect 6 0 7 1;
#X connect 7 0 22 0;
#X connect 10 0 32 1;
#X connect 13 0 14 0;
#X connect 13 1 19 0;
#X connect 14 0 15 0;
#X connect 15 0 16 0;
#X connect 15 1 16 1;
#X connect 16 0 17 0;
#X connect 17 0 18 0;
#X connect 18 0 21 0;
#X connect 19 0 20 0;
#X connect 20 0 21 0;
#X connect 21 0 22 1;
#X connect 22 0 25 0;
#X connect 23 0 24 0;
#X connect 24 0 32 0;
#X connect 25 0 23 0;
#X connect 25 1 23 1;
#X connect 26 0 28 0;
#X connect 28 0 29 0;
#X connect 29 0 25 1;
#X connect 32 0 33 0;
#X connect 33 0 1 0;
#X restore 511 331 pd curve;
#X f 21;
#X obj 511 362 s \$0-velAmt;
#X obj 180 641 r \$0-velAmt;
#X obj 519 255 r \$0-reset;
#X obj 519 279 i 0;
#X obj 551 296 r \$0-velMin;
#X obj 593 273 r \$0-velMax;
#X obj 655 266 r \$0-velDir;
#X obj 660 298 r \$0-velCurve;
#X obj 15 39 stripnote;
#X obj 15 76 t a b b b a, f 17;
#X obj 459 439 r \$0-reset;
#X obj 459 463 i 0;
#X obj 224 420 sel 0;
#X obj 189 468 f;
#X obj 256 456 - 1;
#X connect 0 0 50 0;
#X connect 1 0 2 0;
#X connect 1 0 37 0;
#X connect 1 0 40 0;
#X connect 2 0 3 0;
#X connect 3 0 13 0;
#X connect 3 1 14 0;
#X connect 6 0 25 0;
#X connect 7 0 6 1;
#X connect 7 0 55 1;
#X connect 9 0 36 0;
#X connect 11 0 23 0;
#X connect 12 0 3 1;
#X connect 13 0 1 1;
#X connect 13 0 11 0;
#X connect 14 0 33 0;
#X connect 15 0 27 0;
#X connect 16 0 1 0;
#X connect 17 0 16 1;
#X connect 18 0 16 0;
#X connect 18 1 19 0;
#X connect 19 0 16 0;
#X connect 20 0 6 0;
#X connect 21 0 11 1;
#X connect 22 0 11 2;
#X connect 24 0 5 0;
#X connect 25 0 24 0;
#X connect 25 1 26 0;
#X connect 27 0 18 0;
#X connect 29 0 30 0;
#X connect 30 0 1 1;
#X connect 32 0 27 1;
#X connect 33 0 34 0;
#X connect 35 0 31 0;
#X connect 37 0 54 0;
#X connect 38 0 11 3;
#X connect 39 0 11 4;
#X connect 40 1 41 0;
#X connect 41 0 42 0;
#X connect 43 0 24 1;
#X connect 44 0 45 0;
#X connect 45 0 41 0;
#X connect 46 0 41 1;
#X connect 47 0 41 2;
#X connect 48 0 41 3;
#X connect 49 0 41 4;
#X connect 50 0 51 0;
#X connect 51 1 1 0;
#X connect 51 2 35 0;
#X connect 51 3 28 0;
#X connect 51 4 8 0;
#X connect 52 0 53 0;
#X connect 53 0 11 0;
#X connect 54 0 55 0;
#X connect 54 1 56 0;
#X connect 55 0 25 0;
#X connect 56 0 20 0;
