#N canvas 233 173 1054 616 12;
#N canvas 63 88 935 658 faust-note 0;
#X obj 126 135 unpack, f 12;
#X obj 126 199 mtof;
#X obj 290 287 / 127;
#X obj 390 167 t a a;
#X obj 446 204 > 0;
#X obj 290 311 spigot 0;
#X obj 127 325 spigot 0;
#X obj 441 234 t a a a;
#X obj 179 465 list trim;
#X obj 133 84 inlet;
#X obj 179 489 outlet;
#X obj 150 376 list prepend freq;
#X obj 289 390 list prepend gain;
#X obj 453 396 list prepend gate;
#X connect 0 0 1 0;
#X connect 0 1 3 0;
#X connect 1 0 6 0;
#X connect 2 0 5 0;
#X connect 3 0 2 0;
#X connect 3 1 4 0;
#X connect 4 0 7 0;
#X connect 5 0 12 0;
#X connect 6 0 11 0;
#X connect 7 0 13 0;
#X connect 7 1 6 1;
#X connect 7 2 5 1;
#X connect 8 0 10 0;
#X connect 9 0 0 0;
#X connect 11 0 8 0;
#X connect 12 0 8 0;
#X connect 13 0 8 0;
#X restore 50 412 pd faust-note;
#X obj 361 543 outlet~;
#X obj 100 6 inlet;
#X obj 197 249 t a a;
#X obj 359 455 *~;
#X obj 470 366 line~;
#X obj 463 268 i 0;
#X obj 476 187 t b b b;
#X msg 538 236 stop;
#X obj 508 287 t b b;
#X obj 508 311 i 1;
#X obj 38 285 list store;
#X obj 319 319 rich_FM4~;
#X obj 76 159 unpack;
#X obj 115 194 > 0;
#X obj 115 218 sel 0 1;
#X obj 98 63 t a a;
#X obj 164 291 list store;
#X obj 519 264 del 3;
#X obj 470 339 pack 0 3;
#X obj 346 122 r \$2-messages;
#X obj 360 496 *~ 0.12;
#X connect 0 0 12 0;
#X connect 2 0 16 0;
#X connect 3 0 11 1;
#X connect 3 1 17 1;
#X connect 4 0 21 0;
#X connect 5 0 4 1;
#X connect 6 0 19 0;
#X connect 7 0 6 0;
#X connect 7 1 18 0;
#X connect 7 2 8 0;
#X connect 8 0 18 0;
#X connect 9 0 10 0;
#X connect 9 1 17 0;
#X connect 10 0 19 0;
#X connect 11 0 0 0;
#X connect 12 1 4 0;
#X connect 13 1 14 0;
#X connect 14 0 15 0;
#X connect 15 0 11 0;
#X connect 15 1 7 0;
#X connect 16 0 13 0;
#X connect 16 1 3 0;
#X connect 17 0 0 0;
#X connect 18 0 9 0;
#X connect 19 0 5 0;
#X connect 20 0 12 0;
#X connect 21 0 1 0;
