#N canvas 0 0 450 300 10;
#X obj 10 870 inlet;
#X obj 130 870 r \$0-read;
#X obj 130 900 faust-control \$0;
#X obj 130 930 s \$0-write;
#X obj 10 930 r \$0-in;
#X obj 10 960 pop_synth_lite~;
#X obj 10 990 s \$0-out;
#X obj 70 1020 outlet~;
#X obj 10 1020 outlet;
#X connect 0 0 2 0;
#X connect 1 0 2 0;
#X connect 2 0 3 0;
#X connect 5 0 6 0;
#X connect 0 0 8 0;
#X connect 4 0 5 0;
#X connect 5 1 7 0;
#X obj 10 30 hsl 128 15 0.001 4 0 0 \$0-pop-synth-lite/ampA1 \$0-pop-synth-lite/ampA1 ampA1 -2 -6 0 10 -262144 -1 -1 0 1;
#X obj 160 30 nbx 5 14 0.001 4 0 0 \$0-pop-synth-lite/ampA1 \$0-pop-synth-lite/ampA1 empty 0 -6 0 10 -262144 -1 -1 256;
#X obj 10 60 hsl 128 15 0.001 4 0 0 \$0-pop-synth-lite/ampD1 \$0-pop-synth-lite/ampD1 ampD1 -2 -6 0 10 -262144 -1 -1 0 1;
#X obj 160 60 nbx 5 14 0.001 4 0 0 \$0-pop-synth-lite/ampD1 \$0-pop-synth-lite/ampD1 empty 0 -6 0 10 -262144 -1 -1 256;
#X obj 10 90 hsl 128 15 0.001 4 0 0 \$0-pop-synth-lite/ampDepthA1 \$0-pop-synth-lite/ampDepthA1 ampDepthA1 -2 -6 0 10 -262144 -1 -1 0 1;
#X obj 160 90 nbx 5 14 0.001 4 0 0 \$0-pop-synth-lite/ampDepthA1 \$0-pop-synth-lite/ampDepthA1 empty 0 -6 0 10 -262144 -1 -1 256;
#X obj 10 120 hsl 128 15 0.001 4 0 0 \$0-pop-synth-lite/ampDepthD1 \$0-pop-synth-lite/ampDepthD1 ampDepthD1 -2 -6 0 10 -262144 -1 -1 0 1;
#X obj 160 120 nbx 5 14 0.001 4 0 0 \$0-pop-synth-lite/ampDepthD1 \$0-pop-synth-lite/ampDepthD1 empty 0 -6 0 10 -262144 -1 -1 256;
#X obj 10 150 hsl 128 15 0.001 4 0 0 \$0-pop-synth-lite/ampDepthR1 \$0-pop-synth-lite/ampDepthR1 ampDepthR1 -2 -6 0 10 -262144 -1 -1 0 1;
#X obj 160 150 nbx 5 14 0.001 4 0 0 \$0-pop-synth-lite/ampDepthR1 \$0-pop-synth-lite/ampDepthR1 empty 0 -6 0 10 -262144 -1 -1 256;
#X obj 10 180 hsl 128 15 0 1 0 0 \$0-pop-synth-lite/ampDepthS1 \$0-pop-synth-lite/ampDepthS1 ampDepthS1 -2 -6 0 10 -262144 -1 -1 0 1;
#X obj 160 180 nbx 5 14 0 1 0 0 \$0-pop-synth-lite/ampDepthS1 \$0-pop-synth-lite/ampDepthS1 empty 0 -6 0 10 -262144 -1 -1 256;
#X obj 10 210 hsl 128 15 0.001 10 0 0 \$0-pop-synth-lite/ampLFOA1 \$0-pop-synth-lite/ampLFOA1 ampLFOA1 -2 -6 0 10 -262144 -1 -1 0 1;
#X obj 160 210 nbx 5 14 0.001 10 0 0 \$0-pop-synth-lite/ampLFOA1 \$0-pop-synth-lite/ampLFOA1 empty 0 -6 0 10 -262144 -1 -1 256;
#X obj 10 240 hsl 128 15 0.001 10 0 0 \$0-pop-synth-lite/ampLFOD1 \$0-pop-synth-lite/ampLFOD1 ampLFOD1 -2 -6 0 10 -262144 -1 -1 0 1;
#X obj 160 240 nbx 5 14 0.001 10 0 0 \$0-pop-synth-lite/ampLFOD1 \$0-pop-synth-lite/ampLFOD1 empty 0 -6 0 10 -262144 -1 -1 256;
#X obj 10 270 hsl 128 15 0.001 10 0 0 \$0-pop-synth-lite/ampLFOR1 \$0-pop-synth-lite/ampLFOR1 ampLFOR1 -2 -6 0 10 -262144 -1 -1 0 1;
#X obj 160 270 nbx 5 14 0.001 10 0 0 \$0-pop-synth-lite/ampLFOR1 \$0-pop-synth-lite/ampLFOR1 empty 0 -6 0 10 -262144 -1 -1 256;
#X obj 10 300 hsl 128 15 0 1 0 0 \$0-pop-synth-lite/ampLFOS1 \$0-pop-synth-lite/ampLFOS1 ampLFOS1 -2 -6 0 10 -262144 -1 -1 0 1;
#X obj 160 300 nbx 5 14 0 1 0 0 \$0-pop-synth-lite/ampLFOS1 \$0-pop-synth-lite/ampLFOS1 empty 0 -6 0 10 -262144 -1 -1 256;
#X obj 10 330 hsl 128 15 0.001 4 0 0 \$0-pop-synth-lite/ampR1 \$0-pop-synth-lite/ampR1 ampR1 -2 -6 0 10 -262144 -1 -1 0 1;
#X obj 160 330 nbx 5 14 0.001 4 0 0 \$0-pop-synth-lite/ampR1 \$0-pop-synth-lite/ampR1 empty 0 -6 0 10 -262144 -1 -1 256;
#X obj 10 360 hsl 128 15 0 400 0 0 \$0-pop-synth-lite/ampRate1 \$0-pop-synth-lite/ampRate1 ampRate1 -2 -6 0 10 -262144 -1 -1 0 1;
#X obj 160 360 nbx 5 14 0 400 0 0 \$0-pop-synth-lite/ampRate1 \$0-pop-synth-lite/ampRate1 empty 0 -6 0 10 -262144 -1 -1 256;
#X obj 10 390 hsl 128 15 0 1 0 0 \$0-pop-synth-lite/ampS1 \$0-pop-synth-lite/ampS1 ampS1 -2 -6 0 10 -262144 -1 -1 0 1;
#X obj 160 390 nbx 5 14 0 1 0 0 \$0-pop-synth-lite/ampS1 \$0-pop-synth-lite/ampS1 empty 0 -6 0 10 -262144 -1 -1 256;
#X obj 10 420 hsl 128 15 20 2000 0 0 \$0-pop-synth-lite/freq \$0-pop-synth-lite/freq freq -2 -6 0 10 -262144 -1 -1 0 1;
#X obj 160 420 nbx 5 14 20 2000 0 0 \$0-pop-synth-lite/freq \$0-pop-synth-lite/freq empty 0 -6 0 10 -262144 -1 -1 256;
#X obj 10 450 hsl 128 15 0.001 4 0 0 \$0-pop-synth-lite/freqDepthA1 \$0-pop-synth-lite/freqDepthA1 freqDepthA1 -2 -6 0 10 -262144 -1 -1 0 1;
#X obj 160 450 nbx 5 14 0.001 4 0 0 \$0-pop-synth-lite/freqDepthA1 \$0-pop-synth-lite/freqDepthA1 empty 0 -6 0 10 -262144 -1 -1 256;
#X obj 10 480 hsl 128 15 0.001 4 0 0 \$0-pop-synth-lite/freqDepthD1 \$0-pop-synth-lite/freqDepthD1 freqDepthD1 -2 -6 0 10 -262144 -1 -1 0 1;
#X obj 160 480 nbx 5 14 0.001 4 0 0 \$0-pop-synth-lite/freqDepthD1 \$0-pop-synth-lite/freqDepthD1 empty 0 -6 0 10 -262144 -1 -1 256;
#X obj 10 510 hsl 128 15 0.001 4 0 0 \$0-pop-synth-lite/freqDepthR1 \$0-pop-synth-lite/freqDepthR1 freqDepthR1 -2 -6 0 10 -262144 -1 -1 0 1;
#X obj 160 510 nbx 5 14 0.001 4 0 0 \$0-pop-synth-lite/freqDepthR1 \$0-pop-synth-lite/freqDepthR1 empty 0 -6 0 10 -262144 -1 -1 256;
#X obj 10 540 hsl 128 15 0 1 0 0 \$0-pop-synth-lite/freqDepthS1 \$0-pop-synth-lite/freqDepthS1 freqDepthS1 -2 -6 0 10 -262144 -1 -1 0 1;
#X obj 160 540 nbx 5 14 0 1 0 0 \$0-pop-synth-lite/freqDepthS1 \$0-pop-synth-lite/freqDepthS1 empty 0 -6 0 10 -262144 -1 -1 256;
#X obj 10 570 hsl 128 15 0.001 10 0 0 \$0-pop-synth-lite/freqLFOA1 \$0-pop-synth-lite/freqLFOA1 freqLFOA1 -2 -6 0 10 -262144 -1 -1 0 1;
#X obj 160 570 nbx 5 14 0.001 10 0 0 \$0-pop-synth-lite/freqLFOA1 \$0-pop-synth-lite/freqLFOA1 empty 0 -6 0 10 -262144 -1 -1 256;
#X obj 10 600 hsl 128 15 0.001 10 0 0 \$0-pop-synth-lite/freqLFOD1 \$0-pop-synth-lite/freqLFOD1 freqLFOD1 -2 -6 0 10 -262144 -1 -1 0 1;
#X obj 160 600 nbx 5 14 0.001 10 0 0 \$0-pop-synth-lite/freqLFOD1 \$0-pop-synth-lite/freqLFOD1 empty 0 -6 0 10 -262144 -1 -1 256;
#X obj 10 630 hsl 128 15 0.001 10 0 0 \$0-pop-synth-lite/freqLFOR1 \$0-pop-synth-lite/freqLFOR1 freqLFOR1 -2 -6 0 10 -262144 -1 -1 0 1;
#X obj 160 630 nbx 5 14 0.001 10 0 0 \$0-pop-synth-lite/freqLFOR1 \$0-pop-synth-lite/freqLFOR1 empty 0 -6 0 10 -262144 -1 -1 256;
#X obj 10 660 hsl 128 15 0 1 0 0 \$0-pop-synth-lite/freqLFOS1 \$0-pop-synth-lite/freqLFOS1 freqLFOS1 -2 -6 0 10 -262144 -1 -1 0 1;
#X obj 160 660 nbx 5 14 0 1 0 0 \$0-pop-synth-lite/freqLFOS1 \$0-pop-synth-lite/freqLFOS1 empty 0 -6 0 10 -262144 -1 -1 256;
#X obj 10 690 hsl 128 15 0 400 0 0 \$0-pop-synth-lite/freqRate1 \$0-pop-synth-lite/freqRate1 freqRate1 -2 -6 0 10 -262144 -1 -1 0 1;
#X obj 160 690 nbx 5 14 0 400 0 0 \$0-pop-synth-lite/freqRate1 \$0-pop-synth-lite/freqRate1 empty 0 -6 0 10 -262144 -1 -1 256;
#X obj 10 720 hsl 128 15 0 400 0 0 \$0-pop-synth-lite/freqRateAmt1 \$0-pop-synth-lite/freqRateAmt1 freqRateAmt1 -2 -6 0 10 -262144 -1 -1 0 1;
#X obj 160 720 nbx 5 14 0 400 0 0 \$0-pop-synth-lite/freqRateAmt1 \$0-pop-synth-lite/freqRateAmt1 empty 0 -6 0 10 -262144 -1 -1 256;
#X obj 10 750 hsl 128 15 0 1 0 0 \$0-pop-synth-lite/gain \$0-pop-synth-lite/gain gain -2 -6 0 10 -262144 -1 -1 0 1;
#X obj 160 750 nbx 5 14 0 1 0 0 \$0-pop-synth-lite/gain \$0-pop-synth-lite/gain empty 0 -6 0 10 -262144 -1 -1 256;
#X obj 10 780 bng 15 250 50 0 \$0-pop-synth-lite/gate \$0-pop-synth-lite/gate gate 0 -6 0 10 -262144 -1 -1;
#X obj 197 3 bng 15 250 50 1 \$0-init \$0-ignore empty 0 -6 0 10 -262144 -1 -1;
#X obj 217 3 tgl 15 1 \$0-active \$0-active empty 0 -6 0 10 -262144 -1 -1 1 1;
#X obj 450 10 r \$0-init;
#X obj 730 10 s \$0-in;
#X obj 870 10 s \$0-read;
#X obj 1010 10 r \$0-write;
#X msg 450 30 1;
#X obj 450 50 s \$0-active;
#X connect 66 0 67 0;
#X obj 730 30 r \$0-active;
#X msg 730 50 active \$1;
#X connect 68 0 69 0;
#X connect 69 0 63 0;
#X obj 1010 30 route active;
#X obj 1010 50 s \$0-active;
#X connect 65 0 70 0;
#X connect 70 0 71 0;
#X msg 450 70 1.4;
#X obj 450 90 s \$0-pop-synth-lite/ampA1;
#X connect 62 0 72 0;
#X connect 72 0 73 0;
#X obj 730 70 r \$0-pop-synth-lite/ampA1;
#X msg 730 90 /pop-synth-lite/ampA1 \$1;
#X connect 74 0 75 0;
#X connect 75 0 63 0;
#X obj 1010 70 route /pop-synth-lite/ampA1;
#X obj 1010 90 s \$0-pop-synth-lite/ampA1;
#X connect 70 1 76 0;
#X connect 76 0 77 0;
#X msg 450 110 2;
#X obj 450 130 s \$0-pop-synth-lite/ampD1;
#X connect 62 0 78 0;
#X connect 78 0 79 0;
#X obj 730 110 r \$0-pop-synth-lite/ampD1;
#X msg 730 130 /pop-synth-lite/ampD1 \$1;
#X connect 80 0 81 0;
#X connect 81 0 63 0;
#X obj 1010 110 route /pop-synth-lite/ampD1;
#X obj 1010 130 s \$0-pop-synth-lite/ampD1;
#X connect 76 1 82 0;
#X connect 82 0 83 0;
#X msg 450 150 1.4;
#X obj 450 170 s \$0-pop-synth-lite/ampDepthA1;
#X connect 62 0 84 0;
#X connect 84 0 85 0;
#X obj 730 150 r \$0-pop-synth-lite/ampDepthA1;
#X msg 730 170 /pop-synth-lite/ampDepthA1 \$1;
#X connect 86 0 87 0;
#X connect 87 0 63 0;
#X obj 1010 150 route /pop-synth-lite/ampDepthA1;
#X obj 1010 170 s \$0-pop-synth-lite/ampDepthA1;
#X connect 82 1 88 0;
#X connect 88 0 89 0;
#X msg 450 190 2;
#X obj 450 210 s \$0-pop-synth-lite/ampDepthD1;
#X connect 62 0 90 0;
#X connect 90 0 91 0;
#X obj 730 190 r \$0-pop-synth-lite/ampDepthD1;
#X msg 730 210 /pop-synth-lite/ampDepthD1 \$1;
#X connect 92 0 93 0;
#X connect 93 0 63 0;
#X obj 1010 190 route /pop-synth-lite/ampDepthD1;
#X obj 1010 210 s \$0-pop-synth-lite/ampDepthD1;
#X connect 88 1 94 0;
#X connect 94 0 95 0;
#X msg 450 230 2;
#X obj 450 250 s \$0-pop-synth-lite/ampDepthR1;
#X connect 62 0 96 0;
#X connect 96 0 97 0;
#X obj 730 230 r \$0-pop-synth-lite/ampDepthR1;
#X msg 730 250 /pop-synth-lite/ampDepthR1 \$1;
#X connect 98 0 99 0;
#X connect 99 0 63 0;
#X obj 1010 230 route /pop-synth-lite/ampDepthR1;
#X obj 1010 250 s \$0-pop-synth-lite/ampDepthR1;
#X connect 94 1 100 0;
#X connect 100 0 101 0;
#X msg 450 270 0.5;
#X obj 450 290 s \$0-pop-synth-lite/ampDepthS1;
#X connect 62 0 102 0;
#X connect 102 0 103 0;
#X obj 730 270 r \$0-pop-synth-lite/ampDepthS1;
#X msg 730 290 /pop-synth-lite/ampDepthS1 \$1;
#X connect 104 0 105 0;
#X connect 105 0 63 0;
#X obj 1010 270 route /pop-synth-lite/ampDepthS1;
#X obj 1010 290 s \$0-pop-synth-lite/ampDepthS1;
#X connect 100 1 106 0;
#X connect 106 0 107 0;
#X msg 450 310 0.01;
#X obj 450 330 s \$0-pop-synth-lite/ampLFOA1;
#X connect 62 0 108 0;
#X connect 108 0 109 0;
#X obj 730 310 r \$0-pop-synth-lite/ampLFOA1;
#X msg 730 330 /pop-synth-lite/ampLFOA1 \$1;
#X connect 110 0 111 0;
#X connect 111 0 63 0;
#X obj 1010 310 route /pop-synth-lite/ampLFOA1;
#X obj 1010 330 s \$0-pop-synth-lite/ampLFOA1;
#X connect 106 1 112 0;
#X connect 112 0 113 0;
#X msg 450 350 4;
#X obj 450 370 s \$0-pop-synth-lite/ampLFOD1;
#X connect 62 0 114 0;
#X connect 114 0 115 0;
#X obj 730 350 r \$0-pop-synth-lite/ampLFOD1;
#X msg 730 370 /pop-synth-lite/ampLFOD1 \$1;
#X connect 116 0 117 0;
#X connect 117 0 63 0;
#X obj 1010 350 route /pop-synth-lite/ampLFOD1;
#X obj 1010 370 s \$0-pop-synth-lite/ampLFOD1;
#X connect 112 1 118 0;
#X connect 118 0 119 0;
#X msg 450 390 4;
#X obj 450 410 s \$0-pop-synth-lite/ampLFOR1;
#X connect 62 0 120 0;
#X connect 120 0 121 0;
#X obj 730 390 r \$0-pop-synth-lite/ampLFOR1;
#X msg 730 410 /pop-synth-lite/ampLFOR1 \$1;
#X connect 122 0 123 0;
#X connect 123 0 63 0;
#X obj 1010 390 route /pop-synth-lite/ampLFOR1;
#X obj 1010 410 s \$0-pop-synth-lite/ampLFOR1;
#X connect 118 1 124 0;
#X connect 124 0 125 0;
#X msg 450 430 0.5;
#X obj 450 450 s \$0-pop-synth-lite/ampLFOS1;
#X connect 62 0 126 0;
#X connect 126 0 127 0;
#X obj 730 430 r \$0-pop-synth-lite/ampLFOS1;
#X msg 730 450 /pop-synth-lite/ampLFOS1 \$1;
#X connect 128 0 129 0;
#X connect 129 0 63 0;
#X obj 1010 430 route /pop-synth-lite/ampLFOS1;
#X obj 1010 450 s \$0-pop-synth-lite/ampLFOS1;
#X connect 124 1 130 0;
#X connect 130 0 131 0;
#X msg 450 470 2;
#X obj 450 490 s \$0-pop-synth-lite/ampR1;
#X connect 62 0 132 0;
#X connect 132 0 133 0;
#X obj 730 470 r \$0-pop-synth-lite/ampR1;
#X msg 730 490 /pop-synth-lite/ampR1 \$1;
#X connect 134 0 135 0;
#X connect 135 0 63 0;
#X obj 1010 470 route /pop-synth-lite/ampR1;
#X obj 1010 490 s \$0-pop-synth-lite/ampR1;
#X connect 130 1 136 0;
#X connect 136 0 137 0;
#X msg 450 510 5;
#X obj 450 530 s \$0-pop-synth-lite/ampRate1;
#X connect 62 0 138 0;
#X connect 138 0 139 0;
#X obj 730 510 r \$0-pop-synth-lite/ampRate1;
#X msg 730 530 /pop-synth-lite/ampRate1 \$1;
#X connect 140 0 141 0;
#X connect 141 0 63 0;
#X obj 1010 510 route /pop-synth-lite/ampRate1;
#X obj 1010 530 s \$0-pop-synth-lite/ampRate1;
#X connect 136 1 142 0;
#X connect 142 0 143 0;
#X msg 450 550 0.5;
#X obj 450 570 s \$0-pop-synth-lite/ampS1;
#X connect 62 0 144 0;
#X connect 144 0 145 0;
#X obj 730 550 r \$0-pop-synth-lite/ampS1;
#X msg 730 570 /pop-synth-lite/ampS1 \$1;
#X connect 146 0 147 0;
#X connect 147 0 63 0;
#X obj 1010 550 route /pop-synth-lite/ampS1;
#X obj 1010 570 s \$0-pop-synth-lite/ampS1;
#X connect 142 1 148 0;
#X connect 148 0 149 0;
#X msg 450 590 440;
#X obj 450 610 s \$0-pop-synth-lite/freq;
#X connect 62 0 150 0;
#X connect 150 0 151 0;
#X obj 730 590 r \$0-pop-synth-lite/freq;
#X msg 730 610 /pop-synth-lite/freq \$1;
#X connect 152 0 153 0;
#X connect 153 0 63 0;
#X obj 1010 590 route /pop-synth-lite/freq;
#X obj 1010 610 s \$0-pop-synth-lite/freq;
#X connect 148 1 154 0;
#X connect 154 0 155 0;
#X msg 450 630 1.4;
#X obj 450 650 s \$0-pop-synth-lite/freqDepthA1;
#X connect 62 0 156 0;
#X connect 156 0 157 0;
#X obj 730 630 r \$0-pop-synth-lite/freqDepthA1;
#X msg 730 650 /pop-synth-lite/freqDepthA1 \$1;
#X connect 158 0 159 0;
#X connect 159 0 63 0;
#X obj 1010 630 route /pop-synth-lite/freqDepthA1;
#X obj 1010 650 s \$0-pop-synth-lite/freqDepthA1;
#X connect 154 1 160 0;
#X connect 160 0 161 0;
#X msg 450 670 2;
#X obj 450 690 s \$0-pop-synth-lite/freqDepthD1;
#X connect 62 0 162 0;
#X connect 162 0 163 0;
#X obj 730 670 r \$0-pop-synth-lite/freqDepthD1;
#X msg 730 690 /pop-synth-lite/freqDepthD1 \$1;
#X connect 164 0 165 0;
#X connect 165 0 63 0;
#X obj 1010 670 route /pop-synth-lite/freqDepthD1;
#X obj 1010 690 s \$0-pop-synth-lite/freqDepthD1;
#X connect 160 1 166 0;
#X connect 166 0 167 0;
#X msg 450 710 2;
#X obj 450 730 s \$0-pop-synth-lite/freqDepthR1;
#X connect 62 0 168 0;
#X connect 168 0 169 0;
#X obj 730 710 r \$0-pop-synth-lite/freqDepthR1;
#X msg 730 730 /pop-synth-lite/freqDepthR1 \$1;
#X connect 170 0 171 0;
#X connect 171 0 63 0;
#X obj 1010 710 route /pop-synth-lite/freqDepthR1;
#X obj 1010 730 s \$0-pop-synth-lite/freqDepthR1;
#X connect 166 1 172 0;
#X connect 172 0 173 0;
#X msg 450 750 0.5;
#X obj 450 770 s \$0-pop-synth-lite/freqDepthS1;
#X connect 62 0 174 0;
#X connect 174 0 175 0;
#X obj 730 750 r \$0-pop-synth-lite/freqDepthS1;
#X msg 730 770 /pop-synth-lite/freqDepthS1 \$1;
#X connect 176 0 177 0;
#X connect 177 0 63 0;
#X obj 1010 750 route /pop-synth-lite/freqDepthS1;
#X obj 1010 770 s \$0-pop-synth-lite/freqDepthS1;
#X connect 172 1 178 0;
#X connect 178 0 179 0;
#X msg 450 790 0.01;
#X obj 450 810 s \$0-pop-synth-lite/freqLFOA1;
#X connect 62 0 180 0;
#X connect 180 0 181 0;
#X obj 730 790 r \$0-pop-synth-lite/freqLFOA1;
#X msg 730 810 /pop-synth-lite/freqLFOA1 \$1;
#X connect 182 0 183 0;
#X connect 183 0 63 0;
#X obj 1010 790 route /pop-synth-lite/freqLFOA1;
#X obj 1010 810 s \$0-pop-synth-lite/freqLFOA1;
#X connect 178 1 184 0;
#X connect 184 0 185 0;
#X msg 450 830 4;
#X obj 450 850 s \$0-pop-synth-lite/freqLFOD1;
#X connect 62 0 186 0;
#X connect 186 0 187 0;
#X obj 730 830 r \$0-pop-synth-lite/freqLFOD1;
#X msg 730 850 /pop-synth-lite/freqLFOD1 \$1;
#X connect 188 0 189 0;
#X connect 189 0 63 0;
#X obj 1010 830 route /pop-synth-lite/freqLFOD1;
#X obj 1010 850 s \$0-pop-synth-lite/freqLFOD1;
#X connect 184 1 190 0;
#X connect 190 0 191 0;
#X msg 450 870 4;
#X obj 450 890 s \$0-pop-synth-lite/freqLFOR1;
#X connect 62 0 192 0;
#X connect 192 0 193 0;
#X obj 730 870 r \$0-pop-synth-lite/freqLFOR1;
#X msg 730 890 /pop-synth-lite/freqLFOR1 \$1;
#X connect 194 0 195 0;
#X connect 195 0 63 0;
#X obj 1010 870 route /pop-synth-lite/freqLFOR1;
#X obj 1010 890 s \$0-pop-synth-lite/freqLFOR1;
#X connect 190 1 196 0;
#X connect 196 0 197 0;
#X msg 450 910 0;
#X obj 450 930 s \$0-pop-synth-lite/freqLFOS1;
#X connect 62 0 198 0;
#X connect 198 0 199 0;
#X obj 730 910 r \$0-pop-synth-lite/freqLFOS1;
#X msg 730 930 /pop-synth-lite/freqLFOS1 \$1;
#X connect 200 0 201 0;
#X connect 201 0 63 0;
#X obj 1010 910 route /pop-synth-lite/freqLFOS1;
#X obj 1010 930 s \$0-pop-synth-lite/freqLFOS1;
#X connect 196 1 202 0;
#X connect 202 0 203 0;
#X msg 450 950 5;
#X obj 450 970 s \$0-pop-synth-lite/freqRate1;
#X connect 62 0 204 0;
#X connect 204 0 205 0;
#X obj 730 950 r \$0-pop-synth-lite/freqRate1;
#X msg 730 970 /pop-synth-lite/freqRate1 \$1;
#X connect 206 0 207 0;
#X connect 207 0 63 0;
#X obj 1010 950 route /pop-synth-lite/freqRate1;
#X obj 1010 970 s \$0-pop-synth-lite/freqRate1;
#X connect 202 1 208 0;
#X connect 208 0 209 0;
#X msg 450 990 5;
#X obj 450 1010 s \$0-pop-synth-lite/freqRateAmt1;
#X connect 62 0 210 0;
#X connect 210 0 211 0;
#X obj 730 990 r \$0-pop-synth-lite/freqRateAmt1;
#X msg 730 1010 /pop-synth-lite/freqRateAmt1 \$1;
#X connect 212 0 213 0;
#X connect 213 0 63 0;
#X obj 1010 990 route /pop-synth-lite/freqRateAmt1;
#X obj 1010 1010 s \$0-pop-synth-lite/freqRateAmt1;
#X connect 208 1 214 0;
#X connect 214 0 215 0;
#X msg 450 1030 0;
#X obj 450 1050 s \$0-pop-synth-lite/gain;
#X connect 62 0 216 0;
#X connect 216 0 217 0;
#X obj 730 1030 r \$0-pop-synth-lite/gain;
#X msg 730 1050 /pop-synth-lite/gain \$1;
#X connect 218 0 219 0;
#X connect 219 0 63 0;
#X obj 1010 1030 route /pop-synth-lite/gain;
#X obj 1010 1050 s \$0-pop-synth-lite/gain;
#X connect 214 1 220 0;
#X connect 220 0 221 0;
#X msg 450 1070 0;
#X obj 450 1090 faust-s \$0-pop-synth-lite/gate;
#X connect 62 0 222 0;
#X connect 222 0 223 0;
#X obj 730 1070 r \$0-pop-synth-lite/gate;
#X obj 730 1090 faust-r /pop-synth-lite/gate;
#X connect 224 0 225 0;
#X connect 225 0 63 0;
#X obj 1010 1070 route /pop-synth-lite/gate;
#X obj 1010 1090 faust-s \$0-pop-synth-lite/gate;
#X connect 220 1 226 0;
#X connect 226 0 227 0;
#X coords 0 -1 1 1 235 800 1 0 0;
#X text 0 820 Generated Sat Oct 21 16:22:14 2023 by faust2pd v2.16. See http://faust.grame.fr and http://purelang.bitbucket.org.;
