#N canvas 352 208 523 535 12;
#X obj 44 29 loadbang;
#X msg 108 90 \; pd dsp 1;
#X obj 106 219 metro 1000;
#X obj 102 175 i 1;
#X obj 166 312 osc~ 400;
#X obj 166 336 *~ 0.3;
#X obj 166 360 *~, f 14;
#X obj 277 283 vline~;
#X obj 277 307 *~;
#X msg 276 241 1 10 \, 0 300 10;
#X obj 166 414 dac~ 1 2;
#X connect 0 0 1 0;
#X connect 0 0 3 0;
#X connect 2 0 9 0;
#X connect 3 0 2 0;
#X connect 4 0 5 0;
#X connect 5 0 6 0;
#X connect 6 0 10 0;
#X connect 6 0 10 1;
#X connect 7 0 8 0;
#X connect 7 0 8 1;
#X connect 8 0 6 1;
#X connect 9 0 7 0;
