#N canvas 818 325 450 300 12;
#X obj 26 8 inlet;
#X obj 25 216 s \$1;
#X text 78 7 pair list: target val \, ramp in ms;
#X text 163 50 arg2: ramp time in ms;
#X obj 25 152 line 0.1 20;
#X obj 27 76 pack 0 \$2;
#X connect 0 0 5 0;
#X connect 4 0 1 0;
#X connect 5 0 4 0;
