#N canvas 306 25 902 662 12;
#X obj 16 12 inlet;
#X text 57 11 note;
#X obj 156 12 inlet;
#N canvas 121 146 450 300 messages 0;
#X obj 37 37 inlet;
#X obj 37 85 s \$0-in;
#X obj 73 112 s \$0-size;
#X obj 140 97 s \$0-speed;
#X obj 234 114 s \$0-a;
#X obj 271 93 s \$0-r;
#X obj 58 62 route in size speed a r phase, f 45;
#X obj 323 108 s \$0-phase;
#X connect 0 0 6 0;
#X connect 6 0 1 0;
#X connect 6 1 2 0;
#X connect 6 2 3 0;
#X connect 6 3 4 0;
#X connect 6 4 5 0;
#X connect 6 5 7 0;
#X restore 156 36 pd messages;
#X obj 76 174 phasor~;
#X obj 76 257 *~;
#X obj 96 204 r \$0-size;
#X obj 96 228 lop~ 5;
#X obj 76 281 +~;
#X obj 157 252 lop~ 5;
#X obj 157 228 r \$0-in;
#X obj 76 375 *~, f 24;
#X obj 246 314 r \$2-samp-size;
#X obj 246 338 - 2;
#X obj 76 399 +~ 1;
#X obj 75 598 hip~ 5;
#X obj 75 622 outlet~;
#X obj 76 305 wrap~;
#X obj 76 511 *~;
#X obj 76 534 *~;
#X obj 76 461 *~ 0.5;
#N canvas 233 310 450 373 set-speed 0;
#X obj 144 83 t b a;
#X obj 144 322 outlet;
#X obj 108 118 * 1;
#X obj 176 146 t b a;
#X obj 145 181 * 1;
#X obj 96 31 r \$2-samp-size;
#X obj 247 8 r \$0-size;
#X obj 145 205 / 44.1;
#X obj 145 253 /;
#X obj 144 229 swap 1000;
#X obj 234 89 r \$0-speed;
#X obj 234 113 swap 1;
#X obj 234 137 /;
#X connect 0 0 2 0;
#X connect 0 1 2 1;
#X connect 2 0 4 0;
#X connect 3 0 4 0;
#X connect 3 1 4 1;
#X connect 4 0 7 0;
#X connect 5 0 2 0;
#X connect 6 0 0 0;
#X connect 7 0 9 0;
#X connect 8 0 1 0;
#X connect 9 0 8 0;
#X connect 9 1 8 1;
#X connect 10 0 11 0;
#X connect 11 0 12 0;
#X connect 11 1 12 1;
#X connect 12 0 3 0;
#X restore 78 87 pd set-speed;
#X obj 78 111 f;
#X obj 78 135 spigot 0;
#X obj 438 453 vline~;
#X obj 76 558 *~;
#X obj 406 123 sel 0, f 13;
#X obj 487 375 r \$0-r;
#X obj 414 402 pack 0 1000;
#X obj 411 373 i 0;
#X obj 438 477 *~;
#X obj 493 277 / 127;
#X obj 493 301 sqrt;
#X obj 508 211 i 1;
#X obj 508 235 s \$0-valve;
#X obj 16 36 unpack 0 0;
#X obj 424 232 s \$0-trig;
#X obj 47 66 r \$0-trig;
#X obj 138 112 r \$0-valve;
#X obj 537 546 s \$0-valve;
#X obj 495 331 pack 0 10;
#X obj 576 304 r \$0-a;
#X obj 503 469 del 1000;
#X obj 559 440 r \$0-r;
#X obj 537 522 i 0;
#X obj 503 493 t b b;
#X obj 473 538 i 0;
#X obj 473 562 s \$0-stop;
#X obj 164 139 r \$0-stop;
#X msg 528 426 stop;
#X obj 407 338 t b b b;
#X obj 76 437 tabread4~ \$2-sample;
#X obj 257 73 r \$0-phase;
#X obj 227 163 f;
#X obj 502 157 t b b a b b;
#N canvas 133 115 450 300 shape 0;
#X obj 58 21 inlet~;
#X obj 61 59 expr~ if($v1 < 0.5 \, $v1 \, 0.5-($v1-0.5));
#X obj 61 83 *~ 2;
#X obj 61 107 outlet~;
#X connect 0 0 1 0;
#X connect 1 0 2 0;
#X connect 2 0 3 0;
#X restore 356 555 pd shape;
#N canvas 133 115 450 300 shape-steep 0;
#X obj 58 21 inlet~;
#X obj 59 155 outlet~;
#X obj 59 56 -~ 0.5;
#X obj 59 80 +~ 0.5;
#X obj 59 104 *~ 100;
#X obj 59 128 clip~ 0 1;
#X connect 0 0 2 0;
#X connect 2 0 3 0;
#X connect 3 0 4 0;
#X connect 4 0 5 0;
#X connect 5 0 1 0;
#X restore 242 416 pd shape-steep;
#N canvas 133 115 450 300 shape-steep 0;
#X obj 58 21 inlet~;
#X obj 59 155 outlet~;
#X obj 59 56 -~ 0.5;
#X obj 59 80 +~ 0.5;
#X obj 59 104 *~ 100;
#X obj 59 128 clip~ 0 1;
#X connect 0 0 2 0;
#X connect 2 0 3 0;
#X connect 3 0 4 0;
#X connect 4 0 5 0;
#X connect 5 0 1 0;
#X restore 261 490 pd shape-steep;
#X connect 0 0 35 0;
#X connect 2 0 3 0;
#X connect 4 0 5 0;
#X connect 4 0 56 0;
#X connect 5 0 8 0;
#X connect 6 0 7 0;
#X connect 7 0 5 1;
#X connect 8 0 17 0;
#X connect 9 0 8 1;
#X connect 10 0 9 0;
#X connect 11 0 14 0;
#X connect 12 0 13 0;
#X connect 13 0 11 1;
#X connect 14 0 51 0;
#X connect 15 0 16 0;
#X connect 17 0 11 0;
#X connect 17 0 57 0;
#X connect 18 0 19 0;
#X connect 19 0 25 0;
#X connect 20 0 18 0;
#X connect 21 0 22 0;
#X connect 22 0 23 0;
#X connect 23 0 4 0;
#X connect 24 0 30 0;
#X connect 24 0 30 1;
#X connect 25 0 15 0;
#X connect 26 0 50 0;
#X connect 26 1 54 0;
#X connect 27 0 28 1;
#X connect 28 0 24 0;
#X connect 29 0 28 0;
#X connect 30 0 25 1;
#X connect 31 0 32 0;
#X connect 32 0 40 0;
#X connect 33 0 34 0;
#X connect 35 1 26 0;
#X connect 37 0 22 0;
#X connect 38 0 23 1;
#X connect 40 0 24 0;
#X connect 41 0 40 1;
#X connect 42 0 45 0;
#X connect 43 0 42 1;
#X connect 44 0 39 0;
#X connect 45 0 46 0;
#X connect 45 1 44 0;
#X connect 46 0 47 0;
#X connect 48 0 4 0;
#X connect 49 0 42 0;
#X connect 50 0 29 0;
#X connect 50 1 42 0;
#X connect 50 2 49 0;
#X connect 51 0 20 0;
#X connect 52 0 53 0;
#X connect 53 0 4 1;
#X connect 54 0 36 0;
#X connect 54 1 33 0;
#X connect 54 2 31 0;
#X connect 54 3 49 0;
#X connect 54 4 53 0;
#X connect 56 0 18 1;
#X connect 57 0 19 1;
