#N canvas 201 199 1022 562 12;
#X declare -path Faust_Stuff;
#X declare -path lib;
#X obj 26 55 declare -path Faust_Stuff;
#X obj 26 85 declare -path lib;
#X text 26 25 Asa-Box white noise waves piece;
#X obj 242 55 hsl 162 19 0 127 0 0 empty empty empty -2 -10 0 12 #fcfcfc #000000 #000000 0 1;
#X obj 239 79 / 127;
#X obj 239 103 * 50;
#X obj 239 127 + 1;
#X obj 465 71 hsl 162 19 0 127 0 0 empty empty empty -2 -10 0 12 #fcfcfc #000000 #000000 0 1;
#X obj 461 95 / 127;
#X obj 460 151 + 50;
#X obj 467 127 * 8000;
#X obj 614 151 hsl 162 19 0 127 0 0 empty empty empty -2 -10 0 12 #fcfcfc #000000 #000000 0 1;
#X obj 612 181 / 127;
#X obj 446 339 asa_waves~;
#X obj 479 504 throw~ outL;
#X obj 605 506 throw~ outR;
#X obj 779 271 list prepend lfoRoot;
#X obj 782 139 hsl 162 19 0 127 0 0 empty empty empty -2 -10 0 12 #fcfcfc #000000 #000000 0 1;
#X obj 779 166 / 127;
#X obj 446 304 list trim;
#X obj 27 367 list prepend hipGain;
#X obj 22 221 hsl 162 19 0 127 0 0 empty empty empty -2 -10 0 12 #fcfcfc #000000 #000000 0 1;
#X obj 19 245 / 127;
#X obj 26 331 clip 0 0.5;
#X obj 27 391 s mess-2-waves;
#X obj 446 277 r mess-2-waves;
#X obj 782 296 s mess-2-waves;
#X obj 214 247 hsl 162 19 0 127 0 0 empty empty empty -2 -10 0 12 #fcfcfc #000000 #000000 0 1;
#X obj 211 271 / 127;
#X obj 212 395 s mess-2-waves;
#X obj 212 371 list prepend lopGain;
#X obj 211 308 * 1;
#X obj 211 335 clip 0 1;
#X obj 607 266 list prepend lfoRate;
#X obj 683 5 hsl 162 19 0 127 0 0 empty empty empty -2 -10 0 12 #fcfcfc #000000 #000000 0 1;
#X obj 680 33 / 127;
#X obj 680 81 list prepend lfoDepth;
#X obj 680 105 s mess-2-waves;
#X obj 680 57 * 1000;
#X obj 779 214 + 10;
#X obj 779 238 mtof;
#X obj 460 175 list prepend lopCut;
#X obj 460 199 s mess-2-waves;
#X obj 607 296 s mess-2-waves;
#X obj 239 151 list prepend filtQ;
#X obj 239 175 s mess-2-waves;
#X floatatom 833 230 5 0 0 0 - - - 0;
#X obj 779 190 * 80;
#X obj 93 180 r loadbang-\$1;
#X obj 93 204 f 0;
#N canvas 730 46 710 671 composition 0;
#X text 27 14 phrase;
#X text 219 10 space;
#X text 45 38 generte a phrase;
#X text 46 58 how many times repeat;
#X text 234 32 how long to wait until next phrase;
#X obj 368 306 text define \$0-seq;
#X msg 153 339 tempo 1 sec;
#X msg 32 256 auto;
#X msg 103 264 line 0;
#X obj 66 393 text sequence \$0-seq -w w;
#X obj 238 421 spigot 1;
#X obj 291 392 tgl 19 0 empty empty empty 0 -10 0 12 #fcfcfc #000000 #000000 0 1;
#X obj 54 222 t b b;
#X obj 67 523 outlet;
#X obj 198 73 r loadbang-\$1;
#X obj 276 514 + 1;
#X obj 276 538 moses;
#X obj 238 445 t b;
#X obj 340 593 s \$0-re-trig;
#X obj 316 76 r \$0-re-trig;
#N canvas 0 96 1110 510 generate 0;
#X obj 642 186 + 1;
#X text 647 142 generate a random amount of loops;
#X obj 412 286 list prepend read;
#X obj 412 310 list trim;
#X obj 412 184 + 1;
#X text 428 134 random slection of phrases;
#X text 190 122 random tempo;
#X obj 183 159 random 10;
#X obj 183 318 list prepend tempo;
#X obj 183 287 list append sec;
#X obj 183 53 t b b b, f 66;
#X obj 183 4 inlet;
#X obj 412 334 outlet;
#X obj 642 210 outlet;
#X text 475 163 number of phrases;
#X obj 183 342 list trim;
#X obj 183 366 outlet;
#X obj 183 183 / 10;
#X obj 75 466 s set-burst-max-\$1;
#X obj 90 434 s set-burst-min-\$1;
#X obj 90 407 / 3;
#X obj 412 208 change -1;
#X text 482 211 did it change?;
#X obj 642 162 random 8;
#X obj 684 76 r loadbang-\$1;
#X msg 684 100 seed 3;
#X obj 183 255 + 0.5;
#X obj 75 375 * 1000;
#X obj 183 231 * 2;
#X obj 279 163 random 10;
#X obj 279 187 / 10;
#X obj 279 211 * 1000;
#X obj 279 235 + 10;
#X obj 183 77 t b b;
#X obj 412 262 makefilename phrases/waves-%d.txt;
#X obj 412 160 random 2;
#X connect 0 0 13 0;
#X connect 2 0 3 0;
#X connect 3 0 12 0;
#X connect 4 0 21 0;
#X connect 7 0 17 0;
#X connect 8 0 15 0;
#X connect 9 0 8 0;
#X connect 10 0 33 0;
#X connect 10 1 35 0;
#X connect 10 2 23 0;
#X connect 11 0 10 0;
#X connect 15 0 16 0;
#X connect 17 0 28 0;
#X connect 20 0 19 0;
#X connect 21 0 34 0;
#X connect 23 0 0 0;
#X connect 24 0 25 0;
#X connect 25 0 23 0;
#X connect 26 0 9 0;
#X connect 26 0 27 0;
#X connect 27 0 18 0;
#X connect 27 0 20 0;
#X connect 28 0 26 0;
#X connect 29 0 30 0;
#X connect 30 0 31 0;
#X connect 31 0 32 0;
#X connect 32 0 27 1;
#X connect 33 0 7 0;
#X connect 33 1 29 0;
#X connect 34 0 2 0;
#X connect 35 0 4 0;
#X restore 327 163 pd generate;
#X obj 334 502 + 1;
#X obj 293 133 t b b;
#X obj 308 564 t b b;
#X obj 256 484 i 1;
#X obj 238 513 i 1;
#X obj 48 119 r \$0-re-loop;
#X obj 125 600 s \$0-re-loop;
#X obj 124 572 t b;
#X obj 198 97 t b b;
#X obj 346 99 bng 19 250 50 0 empty empty empty 0 -10 0 12 #fcfcfc #000000 #000000;
#X obj 410 494 bng 19 250 50 0 empty empty empty 0 -10 0 12 #fcfcfc #000000 #000000;
#X msg 409 269 write phrases/waves-2.txt;
#X msg 330 241 read phrases/waves-2.txt;
#X connect 6 0 9 0;
#X connect 7 0 9 0;
#X connect 8 0 9 0;
#X connect 9 0 13 0;
#X connect 9 2 10 0;
#X connect 10 0 17 0;
#X connect 11 0 10 1;
#X connect 12 0 7 0;
#X connect 12 1 8 0;
#X connect 14 0 29 0;
#X connect 15 0 16 0;
#X connect 16 0 25 1;
#X connect 16 1 23 0;
#X connect 17 0 25 0;
#X connect 19 0 22 0;
#X connect 20 0 9 0;
#X connect 20 1 5 0;
#X connect 20 2 21 0;
#X connect 21 0 16 1;
#X connect 22 0 12 0;
#X connect 22 1 20 0;
#X connect 23 0 24 0;
#X connect 23 1 18 0;
#X connect 24 0 25 1;
#X connect 25 0 15 0;
#X connect 25 0 28 0;
#X connect 26 0 12 0;
#X connect 28 0 27 0;
#X connect 28 0 31 0;
#X connect 29 0 22 0;
#X connect 29 1 6 0;
#X connect 30 0 22 0;
#X connect 32 0 5 0;
#X connect 33 0 5 0;
#X restore 423 12 pd composition;
#N canvas 560 488 785 384 send-changes 0;
#X obj 17 19 inlet;
#X obj 194 28 r loadbang-\$1;
#X obj 48 195 gen-line lopCut-\$1;
#X obj 83 257 gen-line lopGain-\$1;
#X obj 233 217 gen-line filtQ-\$1;
#X obj 305 254 gen-line lfoRate-\$1;
#X obj 232 295 gen-line hipGain-\$1;
#X obj 499 287 gen-line lfoDepth-\$1;
#X obj 408 211 gen-line lfoRoot-\$1;
#X obj 64 171 route lopCut lopGain hipGain filtQ lfoRate lfoRoot lfoDepth cricketVol, f 81;
#X obj 564 220 gen-line cricketVol-\$1;
#X obj 608 111 route default;
#X obj 608 135 t b;
#X msg 194 52 lopCut 0.5 10000 \, lopGain 1 \, hipGain 0 \, filtQ 0 \, lfoRate 0.2 \, lfoRoot 0.75 \, lfoDepth 0.1 \, cricketVol 1;
#X connect 0 0 9 0;
#X connect 1 0 13 0;
#X connect 9 0 2 0;
#X connect 9 1 3 0;
#X connect 9 2 6 0;
#X connect 9 3 4 0;
#X connect 9 4 5 0;
#X connect 9 5 8 0;
#X connect 9 6 7 0;
#X connect 9 7 10 0;
#X connect 9 8 11 0;
#X connect 11 0 12 0;
#X connect 12 0 13 0;
#X connect 13 0 9 0;
#X restore 423 40 pd send-changes;
#X obj 509 96 r lopCut-\$1;
#X obj 271 279 r lopGain-\$1;
#X obj 78 257 r hipGain-\$1;
#X obj 282 14 r filtQ-\$1;
#X obj 668 175 r lfoRate-\$1;
#X obj 831 164 r lfoRoot-\$1;
#X obj 577 4 r lfoDepth-\$1;
#X obj 474 397 *~ 2;
#X obj 528 391 *~ 2;
#X obj 26 291 * 0.25;
#X obj 602 470 *~;
#X obj 638 449 *~;
#X obj 638 345 r cricketVol-\$1;
#X obj 638 399 pack 0 5;
#X obj 638 423 line~;
#X obj 638 369 clip 0 1;
#X obj 607 236 * 1;
#X msg 396 245 stereo 15;
#X obj 573 319 grains-main \$1;
#X connect 3 0 4 0;
#X connect 4 0 5 0;
#X connect 5 0 6 0;
#X connect 6 0 44 0;
#X connect 7 0 8 0;
#X connect 8 0 10 0;
#X connect 9 0 41 0;
#X connect 10 0 9 0;
#X connect 11 0 12 0;
#X connect 12 0 68 0;
#X connect 13 1 59 0;
#X connect 13 2 60 0;
#X connect 16 0 26 0;
#X connect 17 0 18 0;
#X connect 18 0 47 0;
#X connect 19 0 13 0;
#X connect 20 0 24 0;
#X connect 21 0 22 0;
#X connect 22 0 61 0;
#X connect 23 0 20 0;
#X connect 25 0 19 0;
#X connect 27 0 28 0;
#X connect 28 0 31 0;
#X connect 30 0 29 0;
#X connect 31 0 32 0;
#X connect 32 0 30 0;
#X connect 33 0 43 0;
#X connect 34 0 35 0;
#X connect 35 0 38 0;
#X connect 36 0 37 0;
#X connect 38 0 36 0;
#X connect 39 0 40 0;
#X connect 40 0 16 0;
#X connect 40 0 46 0;
#X connect 41 0 42 0;
#X connect 44 0 45 0;
#X connect 47 0 39 0;
#X connect 48 0 49 0;
#X connect 48 0 69 0;
#X connect 49 0 23 0;
#X connect 50 0 51 0;
#X connect 52 0 10 0;
#X connect 53 0 31 0;
#X connect 54 0 61 0;
#X connect 55 0 5 0;
#X connect 56 0 68 0;
#X connect 57 0 47 0;
#X connect 58 0 38 0;
#X connect 59 0 14 0;
#X connect 60 0 15 0;
#X connect 61 0 23 0;
#X connect 62 0 14 0;
#X connect 62 0 15 0;
#X connect 63 0 62 1;
#X connect 64 0 67 0;
#X connect 65 0 66 0;
#X connect 66 0 63 0;
#X connect 66 0 63 1;
#X connect 67 0 65 0;
#X connect 68 0 33 0;
#X connect 69 0 13 0;
#X connect 70 0 62 0;
