#N canvas 177 98 1128 728 12;
#X declare -path Faust_Stuff;
#X declare -path lib;
#X obj 16 35 declare -path Faust_Stuff;
#X obj 16 65 declare -path lib;
#X text 16 5 Asa-Box white noise waves piece;
#X obj 248 207 * 50;
#X obj 248 231 + 1;
#X obj 472 201 hsl 162 19 0 1 0 0 empty empty empty -2 -10 0 12 #feffc6 #000000 #000000 0 1;
#X obj 469 255 + 50;
#X obj 469 227 * 8000;
#X obj 455 443 asa_waves~;
#X obj 488 608 throw~ outL;
#X obj 614 610 throw~ outR;
#X obj 831 372 list prepend lfoRoot;
#X obj 455 408 list trim;
#X obj 36 471 list prepend hipGain;
#X obj 35 435 clip 0 0.5;
#X obj 36 495 s mess-2-waves;
#X obj 455 381 r mess-2-waves;
#X obj 834 397 s mess-2-waves;
#X obj 221 499 s mess-2-waves;
#X obj 221 475 list prepend lopGain;
#X obj 220 412 * 1;
#X obj 220 439 clip 0 1;
#X obj 616 370 list prepend lfoRate;
#X obj 689 185 list prepend lfoDepth;
#X obj 689 209 s mess-2-waves;
#X obj 689 161 * 1000;
#X obj 831 315 + 10;
#X obj 831 339 mtof;
#X obj 469 279 list prepend lopCut;
#X obj 469 303 s mess-2-waves;
#X obj 616 400 s mess-2-waves;
#X obj 248 255 list prepend filtQ;
#X obj 248 279 s mess-2-waves;
#X obj 831 291 * 80;
#X obj 279 314 r loadbang-\$1;
#N canvas 470 66 710 671 composition 0;
#X obj 476 323 r loadbang-\$1;
#X obj 126 21 text define \$0-presets;
#X obj 259 435 text tolist \$0-presets;
#X obj 259 387 bng 19 250 50 0 empty empty empty 0 -10 0 12 #fcfcfc #000000 #000000;
#X obj 472 451 text define \$0-data;
#X floatatom 314 379 5 0 0 0 - - - 0;
#X obj 260 519 text set \$0-data;
#X obj 333 279 text fromlist \$0-presets;
#X obj 333 234 text get \$0-data;
#X text 261 345 save current preset;
#X msg 579 415 write phrases/wave-data.txt;
#X obj 59 146 text size \$0-presets;
#X obj 59 247 until;
#X obj 60 197 t a b;
#X obj 121 230 i 0;
#X obj 59 113 bng 19 250 50 0 empty empty empty 0 -10 0 12 #fcfcfc #000000 #000000;
#X obj 60 221 max 1;
#X obj 59 271 i;
#X obj 96 271 + 1;
#X obj 56 338 text get \$0-presets;
#X obj 60 475 outlet;
#X obj 56 362 route list;
#X msg 525 364 read phrases/wave-data.txt;
#X obj 476 347 t b b;
#X obj 306 187 t b a;
#X text 581 392 save data to disk;
#X text 334 34 set a random time from 3 - 8 minutes to change preset;
#N canvas 208 238 450 530 random-time 0;
#X obj 99 151 delay 1 1 min;
#X obj 187 90 random 8;
#X obj 187 114 + 2;
#X obj 99 60 t b b;
#X obj 52 8 inlet;
#X text 99 5 start;
#X obj 99 175 t b b;
#X obj 187 227 r \$0-loop-size;
#X obj 127 252 + 1;
#X obj 127 276 moses, f 9;
#X obj 186 304 t b;
#X obj 186 328 i 0;
#X obj 107 323 i 0;
#X obj 108 389 outlet;
#X text 162 386 select prest;
#X obj 52 32 t b b;
#X obj 197 38 t b;
#X connect 0 0 6 0;
#X connect 1 0 2 0;
#X connect 2 0 0 1;
#X connect 3 0 0 0;
#X connect 3 1 1 0;
#X connect 4 0 15 0;
#X connect 6 0 12 0;
#X connect 6 1 16 0;
#X connect 7 0 9 1;
#X connect 8 0 9 0;
#X connect 9 0 12 1;
#X connect 9 1 10 0;
#X connect 10 0 11 0;
#X connect 11 0 12 1;
#X connect 12 0 8 0;
#X connect 12 0 13 0;
#X connect 15 0 12 0;
#X connect 15 1 3 0;
#X connect 16 0 3 0;
#X restore 305 98 pd random-time;
#X obj 431 516 text size \$0-data;
#X obj 431 540 s \$0-loop-size;
#X obj 411 480 bng 19 250 50 0 empty empty empty 0 -10 0 12 #fcfcfc #000000 #000000;
#X connect 0 0 23 0;
#X connect 2 0 6 0;
#X connect 3 0 2 0;
#X connect 5 0 6 1;
#X connect 8 0 7 0;
#X connect 10 0 4 0;
#X connect 11 0 13 0;
#X connect 12 0 17 0;
#X connect 13 0 16 0;
#X connect 13 1 14 0;
#X connect 14 0 17 1;
#X connect 15 0 11 0;
#X connect 16 0 12 0;
#X connect 17 0 18 0;
#X connect 17 0 19 0;
#X connect 18 0 17 1;
#X connect 19 0 21 0;
#X connect 21 0 20 0;
#X connect 22 0 4 0;
#X connect 23 0 28 0;
#X connect 23 0 27 0;
#X connect 23 1 22 0;
#X connect 24 0 15 0;
#X connect 24 1 8 0;
#X connect 27 0 24 0;
#X connect 28 0 29 0;
#X connect 30 0 28 0;
#X restore 496 50 pd composition;
#N canvas 317 370 785 384 send-changes 1;
#X obj 17 19 inlet;
#X obj 194 28 r loadbang-\$1;
#X obj 64 171 route lopCut lopGain hipGain filtQ lfoRate lfoRoot lfoDepth cricketVol, f 81;
#X obj 608 111 route default;
#X obj 608 135 t b;
#X msg 194 52 lopCut 0.5 10000 \, lopGain 1 \, hipGain 0 \, filtQ 0 \, lfoRate 0.2 \, lfoRoot 0.75 \, lfoDepth 0.1 \, cricketVol 1;
#X obj 64 202 gen-line lopCut-\$1 5000;
#X obj 102 252 gen-line lopGain-\$1 5000;
#X obj 233 217 gen-line filtQ-\$1 5000;
#X obj 305 254 gen-line lfoRate-\$1 5000;
#X obj 232 295 gen-line hipGain-\$1 5000;
#X obj 499 287 gen-line lfoDepth-\$1 5000;
#X obj 564 220 gen-line cricketVol-\$1 5000;
#X obj 408 211 gen-line lfoRoot-\$1 5000;
#X connect 0 0 2 0;
#X connect 1 0 5 0;
#X connect 2 0 6 0;
#X connect 2 1 7 0;
#X connect 2 2 10 0;
#X connect 2 3 8 0;
#X connect 2 4 9 0;
#X connect 2 5 13 0;
#X connect 2 6 11 0;
#X connect 2 7 12 0;
#X connect 2 8 3 0;
#X connect 3 0 4 0;
#X connect 4 0 5 0;
#X connect 5 0 2 0;
#X restore 496 78 pd send-changes;
#X obj 469 172 r lopCut-\$1;
#X obj 220 347 r lopGain-\$1;
#X obj 36 232 r hipGain-\$1;
#X obj 240 56 r filtQ-\$1;
#X obj 616 253 r lfoRate-\$1;
#X obj 831 242 r lfoRoot-\$1;
#X obj 678 5 r lfoDepth-\$1;
#X obj 483 501 *~ 2;
#X obj 537 495 *~ 2;
#X obj 35 395 * 0.25;
#X obj 611 574 *~;
#X obj 647 553 *~;
#X obj 778 442 r cricketVol-\$1;
#X obj 647 503 pack 0 5;
#X obj 647 527 line~;
#X obj 647 473 clip 0 1;
#X obj 616 340 * 1;
#X obj 609 436 grains-main \$1;
#X obj 691 135 hsl 162 19 0 1 0 0 empty empty empty -2 -10 0 12 #feffc6 #000000 #000000 0 1;
#X obj 756 160 preset-send lfoDepth \$0-presets;
#X obj 386 324 preset-send lopCut \$0-presets;
#X obj 834 265 hsl 162 19 0 1 0 0 empty empty empty -2 -10 0 12 #feffc6 #000000 #000000 0 1;
#X obj 899 290 preset-send lfoRoot \$0-presets;
#X obj 619 279 hsl 162 19 0 1 0 0 empty empty empty -2 -10 0 12 #feffc6 #000000 #000000 0 1;
#X obj 632 307 preset-send lfoRate \$0-presets;
#X obj 782 471 hsl 162 19 0 1 0 0 empty empty empty -2 -10 0 12 #feffc6 #000000 #000000 0 1;
#X obj 811 572 preset-send cricketVol \$0-presets;
#X obj 223 377 hsl 162 19 0 1 0 0 empty empty empty -2 -10 0 12 #feffc6 #000000 #000000 0 1;
#X obj 34 286 hsl 162 19 0 1 0 0 empty empty empty -2 -10 0 12 #feffc6 #000000 #000000 0 1;
#X obj 193 525 preset-send lopGain \$0-presets;
#X obj 43 318 preset-send hipGain \$0-presets;
#X obj 243 92 hsl 162 19 0 1 0 0 empty empty empty -2 -10 0 12 #feffc6 #000000 #000000 0 1;
#X obj 252 124 preset-send filtQ \$0-presets;
#X msg 405 349 stereo 20;
#X connect 3 0 4 0;
#X connect 4 0 31 0;
#X connect 5 0 7 0;
#X connect 5 0 57 0;
#X connect 6 0 28 0;
#X connect 7 0 6 0;
#X connect 8 1 44 0;
#X connect 8 2 45 0;
#X connect 11 0 17 0;
#X connect 12 0 8 0;
#X connect 13 0 15 0;
#X connect 14 0 13 0;
#X connect 16 0 12 0;
#X connect 19 0 18 0;
#X connect 20 0 21 0;
#X connect 21 0 19 0;
#X connect 22 0 30 0;
#X connect 23 0 24 0;
#X connect 25 0 23 0;
#X connect 26 0 27 0;
#X connect 27 0 11 0;
#X connect 28 0 29 0;
#X connect 31 0 32 0;
#X connect 33 0 26 0;
#X connect 34 0 70 0;
#X connect 35 0 36 0;
#X connect 37 0 5 0;
#X connect 38 0 64 0;
#X connect 39 0 65 0;
#X connect 40 0 68 0;
#X connect 41 0 60 0;
#X connect 42 0 58 0;
#X connect 43 0 55 0;
#X connect 44 0 9 0;
#X connect 45 0 10 0;
#X connect 46 0 14 0;
#X connect 47 0 9 0;
#X connect 47 0 10 0;
#X connect 48 0 47 1;
#X connect 49 0 62 0;
#X connect 50 0 51 0;
#X connect 51 0 48 0;
#X connect 51 0 48 1;
#X connect 52 0 50 0;
#X connect 53 0 22 0;
#X connect 54 0 47 0;
#X connect 55 0 25 0;
#X connect 55 0 56 0;
#X connect 58 0 33 0;
#X connect 58 0 59 0;
#X connect 60 0 53 0;
#X connect 60 0 61 0;
#X connect 62 0 52 0;
#X connect 62 0 63 0;
#X connect 64 0 20 0;
#X connect 64 0 66 0;
#X connect 65 0 46 0;
#X connect 65 0 67 0;
#X connect 68 0 3 0;
#X connect 68 0 69 0;
#X connect 70 0 8 0;
