#N canvas 504 121 892 656 12;
#X text 26 25 Asa-Box pop ambient synth piece;
#N canvas 63 88 787 505 pop-synth 0;
#X obj 38 21 inlet;
#X text 79 24 notes;
#X obj 37 176 pack 0 0 0;
#X obj 37 320 *~;
#X obj 243 26 inlet;
#X obj 240 221 line~;
#X obj 240 192 pack 0 10;
#X obj 56 411 throw~ outL;
#X obj 138 379 throw~ outR;
#X obj 243 50 route vol pan, f 34;
#X obj 37 270 hip~ 5;
#X obj 43 345 make-stereo 10;
#X obj 263 126 r global-vol;
#X obj 28 217 clone -s 1 synth-voice~ 6 \$1;
#X obj 42 145 poly 6 1, f 10;
#X connect 0 0 14 0;
#X connect 2 0 13 0;
#X connect 3 0 11 0;
#X connect 4 0 9 0;
#X connect 5 0 3 1;
#X connect 6 0 5 0;
#X connect 9 0 6 0;
#X connect 10 0 3 0;
#X connect 11 0 7 0;
#X connect 11 1 8 0;
#X connect 12 0 6 0;
#X connect 13 0 10 0;
#X connect 14 0 2 0;
#X connect 14 1 2 1;
#X connect 14 2 2 2;
#X restore 284 519 pd pop-synth;
#X msg 573 400 pan 0.5;
#X obj 278 281 unpack;
#X obj 278 351 pack 0 0;
#X obj 400 425 i 0;
#X obj 503 369 r loadbang-\$1;
#X msg 481 410 vol 1;
#X msg 362 425 a 2;
#X obj 278 311 makenote 100 900;
#N canvas 600 159 766 674 presets 0;
#X obj 19 148 s \$1-messages;
#X obj 18 65 r loadbang-\$1;
#X msg 129 120 r4 16;
#X msg 162 88 r3 16;
#X msg 89 92 r2 16;
#X msg 31 125 r1 16;
#X obj 243 72 r loadbang-\$1;
#X msg 243 96 s1 0.5;
#X msg 282 123 s3 0.5;
#X obj 249 158 s \$1-messages;
#X text 23 34 releases;
#X text 257 32 sustain;
#X obj 93 216 r loadbang-\$1;
#X obj 172 502 s \$1-messages;
#X obj 512 373 s \$1-messages;
#X obj 492 205 r loadbang-\$1;
#X obj 494 164 s \$1-messages;
#X msg 534 114 a2 0.01;
#X msg 626 104 a4 0.01;
#X obj 493 81 r loadbang-\$1;
#X obj 543 446 r loadbang-\$1;
#X msg 486 517 vel1 0.9;
#X msg 572 519 vel3 0.9;
#X obj 500 579 s \$1-messages;
#X msg 657 518 vel4 0.3;
#X msg 401 522 vel2 0.3;
#X msg 295 389 s4 0.5;
#X msg 77 298 amp2 0.5;
#X msg 88 353 amp3 0.5;
#X msg 370 371 d2 2;
#X msg 434 417 d4 2, f 5;
#X msg 600 136 a3 0.01;
#X msg 472 123 a1 0.01;
#X msg 354 250 modAmt 0.5;
#X text 369 51 3 -> 4 -> out;
#X text 373 26 2 -> 1 -> out;
#X msg 597 310 index4 1.01;
#X msg 519 311 index1 1;
#X msg 533 260 index2 6.01;
#X msg 621 263 index3 6;
#X msg 432 361 d1 2;
#X msg 366 417 d3 2;
#X msg 164 350 amp4 0.5;
#X msg 163 301 amp1 0.5;
#X msg 235 352 s2 0.5;
#X msg 295 352 s1 0.5;
#X msg 235 393 s3 0.5;
#X connect 1 0 5 0;
#X connect 1 0 4 0;
#X connect 1 0 3 0;
#X connect 1 0 2 0;
#X connect 2 0 0 0;
#X connect 3 0 0 0;
#X connect 4 0 0 0;
#X connect 5 0 0 0;
#X connect 6 0 7 0;
#X connect 6 0 8 0;
#X connect 7 0 9 0;
#X connect 8 0 9 0;
#X connect 12 0 44 0;
#X connect 12 0 29 0;
#X connect 12 0 30 0;
#X connect 12 0 42 0;
#X connect 12 0 28 0;
#X connect 12 0 26 0;
#X connect 12 0 41 0;
#X connect 12 0 40 0;
#X connect 12 0 43 0;
#X connect 12 0 27 0;
#X connect 12 0 45 0;
#X connect 12 0 46 0;
#X connect 15 0 38 0;
#X connect 15 0 39 0;
#X connect 15 0 36 0;
#X connect 15 0 33 0;
#X connect 15 0 37 0;
#X connect 17 0 16 0;
#X connect 18 0 16 0;
#X connect 19 0 32 0;
#X connect 19 0 17 0;
#X connect 19 0 18 0;
#X connect 19 0 31 0;
#X connect 20 0 21 0;
#X connect 20 0 22 0;
#X connect 20 0 25 0;
#X connect 20 0 24 0;
#X connect 21 0 23 0;
#X connect 22 0 23 0;
#X connect 24 0 23 0;
#X connect 25 0 23 0;
#X connect 26 0 13 0;
#X connect 27 0 13 0;
#X connect 28 0 13 0;
#X connect 29 0 13 0;
#X connect 30 0 13 0;
#X connect 31 0 16 0;
#X connect 32 0 16 0;
#X connect 33 0 14 0;
#X connect 36 0 14 0;
#X connect 37 0 14 0;
#X connect 38 0 14 0;
#X connect 39 0 14 0;
#X connect 40 0 13 0;
#X connect 41 0 13 0;
#X connect 42 0 13 0;
#X connect 43 0 13 0;
#X connect 44 0 13 0;
#X connect 45 0 13 0;
#X connect 46 0 13 0;
#X restore 100 134 pd presets;
#N canvas 329 100 710 671 composition 1;
#X text 27 14 phrase;
#X text 219 10 space;
#X text 45 38 generte a phrase;
#X text 46 58 how many times repeat;
#X text 234 32 how long to wait until next phrase;
#X obj 368 306 text define \$0-seq;
#X msg 153 339 tempo 1 sec;
#X msg 32 256 auto;
#X msg 103 264 line 0;
#X obj 66 393 text sequence \$0-seq -w w;
#X obj 238 421 spigot 1;
#X obj 291 392 tgl 19 0 empty empty empty 0 -10 0 12 #fcfcfc #000000 #000000 0 1;
#X obj 54 222 t b b;
#X obj 67 523 outlet;
#X obj 198 73 r loadbang-\$1;
#X obj 276 514 + 1;
#X obj 276 538 moses;
#X obj 238 445 t b;
#X obj 340 593 s \$0-re-trig;
#X obj 316 76 r \$0-re-trig;
#N canvas 0 96 1110 510 generate 0;
#X obj 642 186 + 1;
#X text 647 142 generate a random amount of loops;
#X obj 412 262 makefilename phrases/%d.txt;
#X obj 412 286 list prepend read;
#X obj 412 310 list trim;
#X obj 412 184 + 1;
#X text 428 134 random slection of phrases;
#X text 190 122 random tempo;
#X obj 183 159 random 10;
#X obj 183 318 list prepend tempo;
#X obj 183 287 list append sec;
#X obj 183 53 t b b b, f 66;
#X obj 183 4 inlet;
#X obj 412 334 outlet;
#X obj 642 210 outlet;
#X text 475 163 number of phrases;
#X obj 183 342 list trim;
#X obj 183 366 outlet;
#X obj 183 183 / 10;
#X obj 75 466 s set-burst-max-\$1;
#X obj 90 434 s set-burst-min-\$1;
#X obj 90 407 / 3;
#X obj 412 208 change -1;
#X text 482 211 did it change?;
#X obj 642 162 random 8;
#X obj 684 76 r loadbang-\$1;
#X msg 684 100 seed 3;
#X obj 183 255 + 0.5;
#X obj 75 375 * 1000;
#X obj 183 231 * 2;
#X obj 412 160 random 6;
#X obj 279 143 random 10;
#X obj 279 167 / 10;
#X obj 279 214 * 1000;
#X obj 183 77 t b b;
#X obj 279 191 + 0.1;
#X connect 0 0 14 0;
#X connect 2 0 3 0;
#X connect 3 0 4 0;
#X connect 4 0 13 0;
#X connect 5 0 22 0;
#X connect 8 0 18 0;
#X connect 9 0 16 0;
#X connect 10 0 9 0;
#X connect 11 0 34 0;
#X connect 11 1 30 0;
#X connect 11 2 24 0;
#X connect 12 0 11 0;
#X connect 16 0 17 0;
#X connect 18 0 29 0;
#X connect 21 0 20 0;
#X connect 22 0 2 0;
#X connect 24 0 0 0;
#X connect 25 0 26 0;
#X connect 26 0 24 0;
#X connect 27 0 10 0;
#X connect 27 0 28 0;
#X connect 28 0 19 0;
#X connect 28 0 21 0;
#X connect 29 0 27 0;
#X connect 30 0 5 0;
#X connect 31 0 32 0;
#X connect 32 0 35 0;
#X connect 33 0 28 1;
#X connect 34 0 8 0;
#X connect 34 1 31 0;
#X connect 35 0 33 0;
#X restore 327 163 pd generate;
#X obj 334 502 + 1;
#X obj 293 133 t b b;
#X obj 308 564 t b b;
#X obj 256 484 i 1;
#X obj 238 513 i 1;
#X obj 48 119 r \$0-re-loop;
#X obj 125 600 s \$0-re-loop;
#X obj 124 572 t b;
#X obj 198 97 t b b;
#X msg 330 241 read phrases/2.txt;
#X obj 346 99 bng 19 250 50 0 empty empty empty 0 -10 0 12 #fcfcfc #000000 #000000;
#X obj 419 197 print pop-phrase;
#X msg 409 269 write phrases/3.txt;
#X connect 6 0 9 0;
#X connect 7 0 9 0;
#X connect 8 0 9 0;
#X connect 9 0 13 0;
#X connect 9 2 10 0;
#X connect 10 0 17 0;
#X connect 11 0 10 1;
#X connect 12 0 7 0;
#X connect 12 1 8 0;
#X connect 14 0 29 0;
#X connect 15 0 16 0;
#X connect 16 0 25 1;
#X connect 16 1 23 0;
#X connect 17 0 25 0;
#X connect 19 0 22 0;
#X connect 20 0 9 0;
#X connect 20 1 5 0;
#X connect 20 1 32 0;
#X connect 20 2 21 0;
#X connect 21 0 16 1;
#X connect 22 0 12 0;
#X connect 22 1 20 0;
#X connect 23 0 24 0;
#X connect 23 1 18 0;
#X connect 24 0 25 1;
#X connect 25 0 15 0;
#X connect 25 0 28 0;
#X connect 26 0 12 0;
#X connect 28 0 27 0;
#X connect 29 0 22 0;
#X connect 29 1 6 0;
#X connect 30 0 5 0;
#X connect 31 0 22 0;
#X connect 33 0 5 0;
#X restore 278 63 pd composition;
#X obj 278 87 list trim;
#N canvas 63 88 664 359 change-synth 0;
#X obj 39 20 inlet;
#X obj 199 270 s \$1-messages;
#X obj 38 141 list prepend index2;
#X obj 38 165 list trim;
#X obj 38 102 line 1 1;
#X obj 38 72 pack 0 5000;
#X obj 208 34 inlet;
#X obj 212 165 list trim;
#X obj 212 102 line 1 1;
#X obj 212 72 pack 0 5000;
#X obj 212 141 list prepend index3;
#X obj 368 30 inlet;
#X obj 372 161 list trim;
#X obj 372 98 line 1 1;
#X obj 372 68 pack 0 5000;
#X obj 372 137 list prepend index1;
#X connect 0 0 5 0;
#X connect 2 0 3 0;
#X connect 3 0 1 0;
#X connect 4 0 2 0;
#X connect 5 0 4 0;
#X connect 6 0 9 0;
#X connect 7 0 1 0;
#X connect 8 0 10 0;
#X connect 9 0 8 0;
#X connect 10 0 7 0;
#X connect 11 0 14 0;
#X connect 12 0 1 0;
#X connect 13 0 15 0;
#X connect 14 0 13 0;
#X connect 15 0 12 0;
#X restore 349 162 pd change-synth;
#N canvas 335 180 944 520 note-burst-function 0;
#X obj 306 370 note-burst;
#X msg 314 147 dir \$1;
#X obj 388 82 tgl 19 0 empty empty empty 0 -10 0 12 #fcfcfc #000000 #000000 0 1;
#X msg 69 280 velDir \$1;
#X obj 68 249 tgl 19 0 empty empty empty 0 -10 0 12 #fcfcfc #000000 #000000 0 1;
#X obj 589 148 r loadbang-\$1;
#X msg 627 275 53 100;
#X msg 103 156 velMax 120;
#X msg 73 208 velCurve 1;
#X obj 269 102 list split 2;
#X obj 278 17 inlet;
#X obj 306 394 outlet;
#X obj 424 48 r set-burst-max-\$1;
#X obj 496 83 r set-burst-min-\$1;
#X msg 589 181 set -5 -3 5 7 12 16 19 21 23 26 28;
#X msg 407 116 delMax \$1;
#X msg 477 154 delMin \$1;
#X msg 599 231 delCurve -1;
#X msg 150 183 velMin 25;
#X connect 0 0 11 0;
#X connect 1 0 0 1;
#X connect 2 0 1 0;
#X connect 3 0 0 1;
#X connect 4 0 3 0;
#X connect 5 0 14 0;
#X connect 5 0 17 0;
#X connect 6 0 0 0;
#X connect 7 0 0 1;
#X connect 8 0 0 1;
#X connect 9 0 0 0;
#X connect 9 1 1 0;
#X connect 10 0 9 0;
#X connect 12 0 15 0;
#X connect 13 0 16 0;
#X connect 14 0 0 1;
#X connect 15 0 0 1;
#X connect 16 0 0 1;
#X connect 17 0 0 1;
#X connect 18 0 0 1;
#X restore 278 247 pd note-burst-function;
#X obj 278 127 route burst index2 index3 index1, f 39;
#X connect 2 0 1 1;
#X connect 3 0 9 0;
#X connect 3 1 9 1;
#X connect 4 0 1 0;
#X connect 6 0 7 0;
#X connect 6 0 2 0;
#X connect 7 0 1 1;
#X connect 8 0 1 1;
#X connect 9 0 4 0;
#X connect 9 1 4 1;
#X connect 11 0 12 0;
#X connect 12 0 15 0;
#X connect 14 0 3 0;
#X connect 15 0 14 0;
#X connect 15 1 13 0;
#X connect 15 2 13 1;
#X connect 15 3 13 2;
#X connect 15 4 3 0;
