#N canvas 216 199 905 589 12;
#X declare -path Faust_Stuff;
#X declare -path lib;
#X obj 48 451 dac~ 1 2;
#X obj 36 340 catch~ outL;
#X obj 126 341 catch~ outR;
#X obj 36 364 hip~ 5;
#X obj 126 365 hip~ 5;
#N canvas 280 275 450 300 connect 0;
#X obj 46 42 netreceive -u 8000;
#X obj 46 66 route vol;
#X obj 48 98 s flask-vol;
#X connect 0 0 1 0;
#X connect 1 0 2 0;
#X restore 29 21 pd connect;
#X obj 36 388 *~;
#X obj 126 389 *~;
#X obj 249 344 lop~ 5;
#X obj 296 161 loadbang;
#N canvas 390 175 634 410 init 0;
#X obj 8 30 loadbang;
#X obj 8 54 del 5000;
#X obj 88 140 s load-the-sound;
#X obj 27 246 s loadbang-1;
#X obj 68 169 s init-connect;
#X obj 8 104 t b b b b b b;
#X obj 155 50 t b b;
#X obj 192 82 s read-mode-file;
#X connect 0 0 1 0;
#X connect 1 0 5 0;
#X connect 5 1 3 0;
#X connect 5 3 4 0;
#X connect 5 4 2 0;
#X connect 5 5 6 0;
#X connect 6 1 7 0;
#X restore 26 124 pd init;
#X obj 26 55 declare -path Faust_Stuff;
#X obj 26 85 declare -path lib;
#X text 234 5 48 53 55 60;
#N canvas 63 88 450 300 load-sound 0;
#X obj 20 20 main_waves 1;
#X restore 37 294 pd load-sound;
#X obj 368 13 r load-the-sound;
#X obj 296 185 f 0.8;
#X msg 429 196 \; pd-load-sound clear \; pd-load-sound obj 20 20 \$1 1;
#X obj 559 149 symbol main_pop;
#X obj 429 148 symbol main_waves;
#X obj 429 106 sel 1 2, f 12;
#X obj 515 14 r set-the-sound;
#X obj 429 82 i 1;
#X obj 644 40 r read-mode-file;
#X obj 677 121 text define \$0-mode;
#X obj 644 64 t b b;
#X msg 676 93 read boot-mode.txt;
#X obj 543 106 text get \$0-mode;
#X obj 543 82 i 0;
#X msg 762 52 write boot-mode.txt;
#X obj 453 439 s pd;
#X obj 370 280 r loadbang-1;
#X obj 204 136 r flask-vol;
#X obj 204 160 / 127;
#X obj 249 306 clip 0 1;
#X msg 453 362 audio-dialog 0 -1 -1 -1 2 0 0 0 0 -1 -1 -1 2 0 0 0 44100 24 0 1024;
#X msg 306 407 \; pd dsp 1;
#X obj 370 304 t b b;
#X connect 1 0 3 0;
#X connect 2 0 4 0;
#X connect 3 0 6 0;
#X connect 4 0 7 0;
#X connect 6 0 0 0;
#X connect 7 0 0 1;
#X connect 8 0 7 1;
#X connect 8 0 6 1;
#X connect 9 0 16 0;
#X connect 15 0 22 0;
#X connect 16 0 34 0;
#X connect 18 0 17 0;
#X connect 19 0 17 0;
#X connect 20 0 19 0;
#X connect 20 1 18 0;
#X connect 22 0 20 0;
#X connect 23 0 25 0;
#X connect 25 0 28 0;
#X connect 25 1 26 0;
#X connect 26 0 24 0;
#X connect 27 0 22 1;
#X connect 28 0 27 0;
#X connect 29 0 24 0;
#X connect 31 0 37 0;
#X connect 32 0 33 0;
#X connect 33 0 34 0;
#X connect 34 0 8 0;
#X connect 35 0 30 0;
#X connect 37 0 36 0;
#X connect 37 1 35 0;
