#N canvas 263 180 779 488 12;
#X text 68 13 arg1: name of variable;
#X obj 68 74 inlet;
#X text 69 33 arg2: name of text object;
#X obj 68 128 t a b, f 23;
#X obj 68 167 list prepend \$1;
#X obj 395 201 text search \$2;
#X obj 395 171 symbol \$1;
#X text 432 129 search for parameter;
#X obj 395 225 sel -1;
#X text 447 226 if doesnt exist append;
#X obj 68 218 text set \$2;
#X msg 395 249 1e+10;
#X text 490 252 else \, set to line match #;
#X obj 395 309 f;
#X connect 1 0 3 0;
#X connect 3 0 4 0;
#X connect 3 1 6 0;
#X connect 4 0 10 0;
#X connect 5 0 8 0;
#X connect 6 0 5 0;
#X connect 8 0 11 0;
#X connect 8 1 13 0;
#X connect 11 0 13 0;
#X connect 13 0 10 1;
