#N canvas 384 284 823 489 12;
#X obj 157 325 dac~ 1 2;
#X obj 167 180 osc~ 440;
#X obj 162 255 *~;
#X obj 251 200 vline~;
#X obj 251 224 *~;
#X msg 253 166 1 10 \, 0 300 10;
#X obj 167 204 *~ 0.5;
#X obj 393 88 loadbang;
#X obj 393 112 metro 500;
#X obj 132 39 loadbang;
#X msg 132 67 \; pd dsp 1;
#X obj 452 188 print;
#X connect 1 0 6 0;
#X connect 2 0 0 0;
#X connect 2 0 0 1;
#X connect 3 0 4 0;
#X connect 3 0 4 1;
#X connect 4 0 2 1;
#X connect 5 0 3 0;
#X connect 6 0 2 0;
#X connect 7 0 8 0;
#X connect 8 0 5 0;
#X connect 8 0 11 0;
#X connect 9 0 10 0;
